#Comment line ignore any data following # character 
#Hierarchical Translation and Rotation (.htr) file 
[Header]	
#Header keywords are followed by a single value 
FileType HTR		#Single word string
DataType HTRS		#Translation followed by rotation and scale data
FileVersion 1		#integer
NumSegments 64		#integer
NumFrames 3		#integer
DataFrameRate 30		#integer, data frame rate in this file
EulerRotationOrder ZYX
CalibrationUnits mm
RotationUnits Degrees
GlobalAxisofGravity Y
BoneLengthAxis Y
ScaleFactor 1.00
[SegmentNames&Hierarchy]
#CHILD	PARENT
Pinger_Root GLOBAL
Pelvis Pinger_Root
L_Hip Pelvis
R_Hip Pelvis
Rear_Leg01 Pelvis
Spine1 Pelvis
L_Leg01 L_Hip
L_Leg02 L_Leg01
L_Leg03 L_Leg02
L_Foot L_Leg03
L_Toe1_01 L_Foot
L_Toe2_01 L_Foot
L_Toe3_01 L_Foot
planeAlignerLeft L_Foot
L_Toe1_02 L_Toe1_01
L_Toe1_03 L_Toe1_02
L_Toe2_02 L_Toe2_01
L_Toe2_03 L_Toe2_02
L_Toe3_02 L_Toe3_01
L_Toe3_03 L_Toe3_02
planeLockWeightLeft planeAlignerLeft
R_Leg01 R_Hip
R_Leg02 R_Leg01
R_Leg03 R_Leg02
R_Foot R_Leg03
planeAlignerRight R_Foot
R_Toe1_01 R_Foot
R_Toe2_01 R_Foot
R_Toe3_01 R_Foot
planeLockWeightRight planeAlignerRight
R_Toe1_02 R_Toe1_01
R_Toe1_03 R_Toe1_02
R_Toe2_02 R_Toe2_01
R_Toe2_03 R_Toe2_02
R_Toe3_02 R_Toe3_01
R_Toe3_03 R_Toe3_02
Rear_Leg02 Rear_Leg01
Rear_Leg03 Rear_Leg02
Rear_Leg04 Rear_Leg03
Rear_Foot Rear_Leg04
planeAlignerCenter Rear_Foot
Rear_Toe1_01 Rear_Foot
Rear_Toe2_01 Rear_Foot
Rear_Toe3_01 Rear_Foot
planeLockWeightCenter planeAlignerCenter
Rear_Toe1_02 Rear_Toe1_01
Rear_Toe1_03 Rear_Toe1_02
Rear_Toe2_02 Rear_Toe2_01
Rear_Toe2_03 Rear_Toe2_02
Rear_Toe3_02 Rear_Toe3_01
Rear_Toe3_03 Rear_Toe3_02
Back_Bone Spine1
Head Spine1
Motor_Bone Back_Bone
Ping_Mechanism Back_Bone
BN_LookIK Head
bottomMouth Head
L_Mouth01 Head
L_mouthFront Head
mouthGun Head
R_Mouth01 Head
R_mouthFront Head
TopMouth Head
weapon_bone Head
[BasePosition]
#SegmentName Tx, Ty, Tz, Rx, Ry, Rz, BoneLength
Pinger_Root 0.000000 0.000000 0.000000 -90.000000 0.000000 0.000000 10.000000 
Pelvis 0.000000 0.000000 0.000000 0.000000 0.000000 0.000000 10.000000 
L_Hip 0.000000 0.000000 0.000000 0.000000 0.000000 0.000000 10.000000 
R_Hip 0.000000 0.000000 0.000000 0.000000 0.000000 0.000000 10.000000 
Rear_Leg01 0.000000 0.000000 0.000000 0.000000 0.000000 0.000000 10.000000 
Spine1 0.000000 0.000000 0.000000 0.000000 0.000000 0.000000 10.000000 
L_Leg01 0.000000 0.000000 0.000000 0.000000 0.000000 0.000000 10.000000 
L_Leg02 0.000000 0.000000 0.000000 0.000000 0.000000 0.000000 10.000000 
L_Leg03 0.000000 0.000000 0.000000 0.000000 0.000000 0.000000 10.000000 
L_Foot 0.000000 0.000000 0.000000 0.000000 0.000000 0.000000 10.000000 
L_Toe1_01 0.000000 0.000000 0.000000 0.000000 0.000000 0.000000 10.000000 
L_Toe2_01 0.000000 0.000000 0.000000 0.000000 0.000000 0.000000 10.000000 
L_Toe3_01 0.000000 0.000000 0.000000 0.000000 0.000000 0.000000 10.000000 
planeAlignerLeft 0.000000 0.000000 0.000000 0.000000 0.000000 0.000000 10.000000 
L_Toe1_02 0.000000 0.000000 0.000000 0.000000 0.000000 0.000000 10.000000 
L_Toe1_03 0.000000 0.000000 0.000000 0.000000 0.000000 0.000000 10.000000 
L_Toe2_02 0.000000 0.000000 0.000000 0.000000 0.000000 0.000000 10.000000 
L_Toe2_03 0.000000 0.000000 0.000000 0.000000 0.000000 0.000000 10.000000 
L_Toe3_02 0.000000 0.000000 0.000000 0.000000 0.000000 0.000000 10.000000 
L_Toe3_03 0.000000 0.000000 0.000000 0.000000 0.000000 0.000000 10.000000 
planeLockWeightLeft 0.000000 0.000000 0.000000 0.000000 0.000000 0.000000 10.000000 
R_Leg01 0.000000 0.000000 0.000000 0.000000 0.000000 0.000000 10.000000 
R_Leg02 0.000000 0.000000 0.000000 0.000000 0.000000 0.000000 10.000000 
R_Leg03 0.000000 0.000000 0.000000 0.000000 0.000000 0.000000 10.000000 
R_Foot 0.000000 0.000000 0.000000 0.000000 0.000000 0.000000 10.000000 
planeAlignerRight 0.000000 0.000000 0.000000 0.000000 0.000000 0.000000 10.000000 
R_Toe1_01 0.000000 0.000000 0.000000 0.000000 0.000000 0.000000 10.000000 
R_Toe2_01 0.000000 0.000000 0.000000 0.000000 0.000000 0.000000 10.000000 
R_Toe3_01 0.000000 0.000000 0.000000 0.000000 0.000000 0.000000 10.000000 
planeLockWeightRight 0.000000 0.000000 0.000000 0.000000 0.000000 0.000000 10.000000 
R_Toe1_02 0.000000 0.000000 0.000000 0.000000 0.000000 0.000000 10.000000 
R_Toe1_03 0.000000 0.000000 0.000000 0.000000 0.000000 0.000000 10.000000 
R_Toe2_02 0.000000 0.000000 0.000000 0.000000 0.000000 0.000000 10.000000 
R_Toe2_03 0.000000 0.000000 0.000000 0.000000 0.000000 0.000000 10.000000 
R_Toe3_02 0.000000 0.000000 0.000000 0.000000 0.000000 0.000000 10.000000 
R_Toe3_03 0.000000 0.000000 0.000000 0.000000 0.000000 0.000000 10.000000 
Rear_Leg02 0.000000 0.000000 0.000000 0.000000 0.000000 0.000000 10.000000 
Rear_Leg03 0.000000 0.000000 0.000000 0.000000 0.000000 0.000000 10.000000 
Rear_Leg04 0.000000 0.000000 0.000000 0.000000 0.000000 0.000000 10.000000 
Rear_Foot 0.000000 0.000000 0.000000 0.000000 0.000000 0.000000 10.000000 
planeAlignerCenter 0.000000 0.000000 0.000000 0.000000 0.000000 0.000000 10.000000 
Rear_Toe1_01 0.000000 0.000000 0.000000 0.000000 0.000000 0.000000 10.000000 
Rear_Toe2_01 0.000000 0.000000 0.000000 0.000000 0.000000 0.000000 10.000000 
Rear_Toe3_01 0.000000 0.000000 0.000000 0.000000 0.000000 0.000000 10.000000 
planeLockWeightCenter 0.000000 0.000000 0.000000 0.000000 0.000000 0.000000 10.000000 
Rear_Toe1_02 0.000000 0.000000 0.000000 0.000000 0.000000 0.000000 10.000000 
Rear_Toe1_03 0.000000 0.000000 0.000000 0.000000 0.000000 0.000000 10.000000 
Rear_Toe2_02 0.000000 0.000000 0.000000 0.000000 0.000000 0.000000 10.000000 
Rear_Toe2_03 0.000000 0.000000 0.000000 0.000000 0.000000 0.000000 10.000000 
Rear_Toe3_02 0.000000 0.000000 0.000000 0.000000 0.000000 0.000000 10.000000 
Rear_Toe3_03 0.000000 0.000000 0.000000 0.000000 0.000000 0.000000 10.000000 
Back_Bone 0.000000 0.000000 0.000000 0.000000 0.000000 0.000000 10.000000 
Head 0.000000 0.000000 0.000000 0.000000 0.000000 0.000000 10.000000 
Motor_Bone 0.000000 0.000000 0.000000 0.000000 0.000000 0.000000 10.000000 
Ping_Mechanism 0.000000 0.000000 0.000000 0.000000 0.000000 0.000000 10.000000 
BN_LookIK 0.000000 0.000000 0.000000 0.000000 0.000000 0.000000 10.000000 
bottomMouth 0.000000 0.000000 0.000000 0.000000 0.000000 0.000000 10.000000 
L_Mouth01 0.000000 0.000000 0.000000 0.000000 0.000000 0.000000 10.000000 
L_mouthFront 0.000000 0.000000 0.000000 0.000000 0.000000 0.000000 10.000000 
mouthGun 0.000000 0.000000 0.000000 0.000000 0.000000 0.000000 10.000000 
R_Mouth01 0.000000 0.000000 0.000000 0.000000 0.000000 0.000000 10.000000 
R_mouthFront 0.000000 0.000000 0.000000 0.000000 0.000000 0.000000 10.000000 
TopMouth 0.000000 0.000000 0.000000 0.000000 0.000000 0.000000 10.000000 
weapon_bone 0.000000 0.000000 0.000000 0.000000 0.000000 0.000000 10.000000 
#Beginning of Data. Separated by tabs
#Fr	Tx	Ty	Tz	Rx	Ry	Rz	SF
[Pinger_Root]
58 0.000000 0.000000 0.000000 -0.000075 -0.000000 -0.000020 0.000000
59 0.000000 0.000000 0.000000 -0.000075 -0.000000 -0.000020 0.000000
60 0.000000 0.000000 0.000000 -0.000075 -0.000000 -0.000020 0.000000
[Pelvis]
58 70.637550 916.536743 4425.409180 -101.171921 -86.808189 93.554787 4519.875977
59 71.460709 916.536743 4429.171875 -100.993446 -86.643860 93.375992 4523.572754
60 71.815819 916.536743 4430.592773 -100.831062 -86.479301 93.213142 4524.969238
[L_Hip]
58 5.766392 125.831482 872.656799 160.158691 -45.484905 122.312202 881.701050
59 5.766392 125.831482 872.656799 160.158691 -45.484905 122.312202 881.701050
60 5.766392 125.831482 872.656799 160.158691 -45.484905 122.312202 881.701050
[R_Hip]
58 5.765438 125.836372 -872.654907 38.087841 49.812687 125.703735 881.699829
59 5.765438 125.836372 -872.654907 38.087841 49.812687 125.703735 881.699829
60 5.765438 125.836372 -872.654907 38.087841 49.812687 125.703735 881.699829
[Rear_Leg01]
58 -192.298416 -925.602966 -0.001907 169.726273 2.111180 -158.709976 945.367432
59 -192.298416 -925.602966 -0.001907 169.717300 2.082658 -158.889389 945.367432
60 -192.298416 -925.602966 -0.001907 169.708435 2.054108 -159.068817 945.367432
[Spine1]
58 290.604584 5.007505 0.000477 7.265744 -0.619986 19.266817 290.647736
59 290.604584 5.007505 0.000477 7.265744 -0.619986 19.266817 290.647736
60 290.604584 5.007505 0.000477 7.265745 -0.619986 19.266819 290.647736
[L_Leg01]
58 761.932007 -0.002384 -0.069261 23.381496 -15.377143 -10.003419 761.932068
59 761.932007 -0.002384 -0.069261 23.288654 -15.421413 -9.896817 761.932068
60 761.932007 -0.002384 -0.069261 23.195696 -15.465517 -9.790111 761.932068
[L_Leg02]
58 1441.140503 -0.000954 -0.000715 2.587976 -0.187260 -128.865631 1441.140503
59 1441.140503 -0.000954 -0.000715 2.581177 -0.185540 -128.799835 1441.140503
60 1441.140503 -0.000954 -0.000715 2.574381 -0.183812 -128.734024 1441.140503
[L_Leg03]
58 1686.963989 -0.000715 -0.000954 -0.029947 0.014715 118.121674 1686.963989
59 1686.963989 -0.000715 -0.000954 -0.029947 0.014715 118.123001 1686.963989
60 1686.963989 -0.000715 -0.000954 -0.029946 0.014715 118.124336 1686.963989
[L_Foot]
58 3041.570068 -30.715107 11.297464 1.933875 13.094150 55.524632 3041.746094
59 3041.570068 -30.715107 11.297464 1.935132 13.093325 55.520832 3041.746094
60 3041.570068 -30.715107 11.297464 1.936389 13.092499 55.517029 3041.746094
[L_Toe1_01]
58 -188.216690 -224.732346 -21.137953 93.725410 -7.041790 -172.018738 293.899567
59 -188.216690 -224.732346 -21.137953 93.724777 -6.961034 -171.996750 293.899567
60 -188.216690 -224.732346 -21.137953 93.724174 -6.880284 -171.974747 293.899567
[L_Toe2_01]
58 200.746536 -219.926590 148.838394 -90.005486 -26.428211 -52.655396 332.896027
59 200.746536 -219.926590 148.838394 -90.006912 -26.419258 -52.657120 332.896027
60 200.746536 -219.926590 148.838394 -90.008331 -26.410294 -52.658821 332.896027
[L_Toe3_01]
58 188.832520 -219.859131 -191.078659 -99.709450 13.714199 -67.501343 347.140900
59 188.832520 -219.859131 -191.078659 -99.745430 13.770279 -67.577080 347.140900
60 188.832520 -219.859131 -191.078659 -99.781494 13.826312 -67.652855 347.140900
[planeAlignerLeft]
58 0.812531 -811.448792 -0.314951 0.000000 -90.000000 -90.001900 811.449280
59 0.812531 -811.448792 -0.314951 0.000000 -90.000000 -90.001900 811.449280
60 0.812531 -811.448792 -0.314951 0.000000 -90.000000 -90.001900 811.449280
[L_Toe1_02]
58 413.761139 0.000477 0.000000 0.001384 -25.946957 0.001384 413.761139
59 413.761139 0.000477 0.000000 0.001384 -25.952030 0.001384 413.761139
60 413.761139 0.000477 0.000000 0.001384 -25.957104 0.001384 413.761139
[L_Toe1_03]
58 464.317322 0.000358 -0.000089 0.003721 53.228336 0.003721 464.317322
59 464.317322 0.000358 -0.000089 0.003722 53.241409 0.003722 464.317322
60 464.317322 0.000358 -0.000089 0.003723 53.254478 0.003723 464.317322
[L_Toe2_02]
58 342.235809 -0.000477 0.000238 0.001188 -72.303070 0.001188 342.235809
59 342.235809 -0.000477 0.000238 0.001188 -72.319595 0.001188 342.235809
60 342.235809 -0.000477 0.000238 0.001188 -72.336060 0.001188 342.235809
[L_Toe2_03]
58 420.210846 -0.000715 0.000000 0.028702 85.313042 0.028702 420.210846
59 420.210846 -0.000715 0.000000 0.028732 85.317810 0.028732 420.210846
60 420.210846 -0.000715 0.000000 0.028761 85.322655 0.028761 420.210846
[L_Toe3_02]
58 329.270111 0.000954 0.000000 0.001178 -80.582634 0.001178 329.270111
59 329.270111 0.000954 0.000000 0.001178 -80.574745 0.001178 329.270111
60 329.270111 0.000954 0.000000 0.001178 -80.566910 0.001178 329.270111
[L_Toe3_03]
58 439.137451 -0.001907 0.000954 -179.996124 78.293221 -179.992599 439.137451
59 439.137451 -0.001907 0.000954 -179.996033 78.490715 -179.992508 439.137451
60 439.137451 -0.001907 0.000954 -179.996017 78.500298 -179.992508 439.137451
[planeLockWeightLeft]
58 -0.000954 0.000238 -0.000305 -0.011826 -0.004376 0.005620 0.001029
59 -0.000954 0.000238 -0.000305 -0.011826 -0.004376 0.005620 0.001029
60 -0.000954 0.000238 -0.000305 -0.011826 -0.004376 0.005620 0.001029
[R_Leg01]
58 761.455627 -0.001907 -0.000358 119.792397 -7.511584 35.958027 761.455688
59 761.455627 -0.001907 -0.000358 119.831520 -7.531646 35.974979 761.455688
60 761.455627 -0.001907 -0.000358 119.896049 -7.660744 35.907013 761.455688
[R_Leg02]
58 1441.140625 0.000000 -0.000238 -1.346570 -0.202562 -119.072876 1441.140625
59 1441.140625 0.000000 -0.000238 -1.339079 -0.199089 -118.872353 1441.140625
60 1441.140625 0.000000 -0.000238 -1.339074 -0.199118 -118.874756 1441.140625
[R_Leg03]
58 1686.963989 0.000954 0.001431 0.078295 -0.042498 131.517868 1686.963989
59 1686.963989 0.000954 0.001431 0.077662 -0.042768 131.487656 1686.963989
60 1686.963989 0.000954 0.001431 0.077030 -0.043038 131.457428 1686.963989
[R_Foot]
58 3041.560059 -30.531288 -11.204481 -0.425618 -24.678675 55.377792 3041.734131
59 3041.560059 -30.531288 -11.204481 -0.476710 -24.682690 55.366676 3041.734131
60 3041.560059 -30.531288 -11.204481 -0.527802 -24.686716 55.355560 3041.734131
[planeAlignerRight]
58 -0.635147 -812.270569 -0.364304 0.000000 -89.960434 -90.005180 812.270874
59 -0.635147 -812.270569 -0.364304 0.000000 -89.960434 -90.005180 812.270874
60 -0.635147 -812.270569 -0.364304 0.000000 -89.960434 -90.005180 812.270874
[R_Toe1_01]
58 -188.383347 -224.864899 21.052242 76.768364 -0.453370 -172.847702 294.101532
59 -188.383347 -224.864899 21.052242 76.767403 -0.445616 -172.823914 294.101532
60 -188.383347 -224.864899 21.052242 76.766426 -0.437861 -172.800110 294.101532
[R_Toe2_01]
58 200.637817 -220.002121 -148.787384 -91.688744 32.876091 -59.078236 332.857574
59 200.637817 -220.002121 -148.787384 -91.692955 32.875923 -59.086246 332.857574
60 200.637817 -220.002121 -148.787384 -91.697144 32.875751 -59.094231 332.857574
[R_Toe3_01]
58 188.606735 -220.092957 191.126343 -73.200676 -8.544790 -73.591957 347.192566
59 188.606735 -220.092957 191.126343 -73.225998 -8.456852 -73.756149 347.192566
60 188.606735 -220.092957 191.126343 -73.225998 -8.456855 -73.756157 347.192566
[planeLockWeightRight]
58 -0.000477 0.000000 0.000000 -0.011823 -0.004379 -0.000027 0.000477
59 -0.000477 0.000000 0.000000 -0.011823 -0.004379 -0.000027 0.000477
60 -0.000477 0.000000 0.000000 -0.011823 -0.004379 -0.000027 0.000477
[R_Toe1_02]
58 413.762085 0.000477 -0.000119 0.000006 -25.434675 -0.000005 413.762085
59 413.762085 0.000477 -0.000119 0.000006 -25.434675 -0.000005 413.762085
60 413.762085 0.000477 -0.000119 0.000006 -25.434675 -0.000005 413.762085
[R_Toe1_03]
58 464.317810 0.000000 0.001088 0.006670 69.731934 0.006670 464.317810
59 464.317810 0.000000 0.001088 0.006655 69.685760 0.006655 464.317810
60 464.317810 0.000000 0.001088 0.006640 69.639580 0.006640 464.317810
[R_Toe2_02]
58 342.234741 -0.000954 0.000238 0.001197 -67.378761 0.001197 342.234741
59 342.234741 -0.000954 0.000238 0.001197 -67.215309 0.001197 342.234741
60 342.234741 -0.000954 0.000238 0.001197 -67.215317 0.001197 342.234741
[R_Toe2_03]
58 420.210846 0.000715 -0.000268 0.008319 73.778954 0.008319 420.210846
59 420.210846 0.000715 -0.000268 0.008275 73.692429 0.008275 420.210846
60 420.210846 0.000715 -0.000268 0.008231 73.605881 0.008231 420.210846
[R_Toe3_02]
58 329.270355 -0.000477 -0.000954 0.001184 -74.580772 0.001184 329.270355
59 329.270355 -0.000477 -0.000954 0.001184 -74.575981 0.001184 329.270355
60 329.270355 -0.000477 -0.000954 0.001184 -74.571220 0.001184 329.270355
[R_Toe3_03]
58 439.137939 0.000238 0.001431 -0.011816 83.452576 -0.008313 439.137939
59 439.137939 0.000238 0.001431 -0.011700 83.376381 -0.008198 439.137939
60 439.137939 0.000238 0.001431 -0.011587 83.300308 -0.008085 439.137939
[Rear_Leg02]
58 1162.777710 -0.029802 0.005960 0.675946 -2.905633 -124.523956 1162.777710
59 1162.777710 -0.029802 0.005960 0.661263 -2.909514 -124.208931 1162.777710
60 1162.777710 -0.029802 0.005960 0.654820 -2.911246 -124.086876 1162.777710
[Rear_Leg03]
58 607.192505 -0.013351 -0.073195 0.010644 -0.004781 64.731056 607.192505
59 607.192505 -0.013351 -0.073195 0.010049 -0.004399 64.692604 607.192505
60 607.192505 -0.013351 -0.073195 0.009453 -0.004018 64.654152 607.192505
[Rear_Leg04]
58 995.874512 -0.020504 -0.011921 -0.040639 -0.014832 59.170033 995.874573
59 995.874512 -0.020504 -0.011921 -0.040619 -0.014887 59.016598 995.874573
60 995.874512 -0.020504 -0.011921 -0.040599 -0.014941 58.863171 995.874573
[Rear_Foot]
58 3096.176270 -0.067472 -0.041425 -143.477554 85.799606 49.439545 3096.176270
59 3096.176270 -0.067472 -0.041425 -143.510971 85.794579 49.389652 3096.176270
60 3096.176270 -0.067472 -0.041425 -143.544388 85.789642 49.339958 3096.176270
[planeAlignerCenter]
58 0.350077 0.966311 -838.790894 0.000009 0.000003 -179.999985 838.791565
59 0.350077 0.966311 -838.790894 0.000009 0.000003 -179.999985 838.791565
60 0.350077 0.966311 -838.790894 0.000009 0.000003 -179.999985 838.791565
[Rear_Toe1_01]
58 0.653352 83.966492 -371.173737 0.288091 41.914127 90.413170 380.553192
59 0.653352 83.966492 -371.173737 0.288091 41.914127 90.413170 380.553192
60 0.653352 83.966492 -371.173737 0.288091 41.914127 90.413170 380.553192
[Rear_Toe2_01]
58 178.200760 -294.826019 -362.060547 -7.196267 34.406261 -66.271294 499.765686
59 178.200760 -294.826019 -362.060547 -7.196267 34.406261 -66.271294 499.765686
60 178.200760 -294.826019 -362.060547 -7.196267 34.406261 -66.271294 499.765686
[Rear_Toe3_01]
58 -153.359680 -308.780914 -362.060852 3.289418 33.518005 -112.540970 499.952881
59 -153.359680 -308.780914 -362.060852 3.289418 33.518005 -112.540970 499.952881
60 -153.359680 -308.780914 -362.060852 3.289418 33.518005 -112.540970 499.952881
[planeLockWeightCenter]
58 -0.000062 0.000238 0.000000 -0.011814 -0.004373 -0.000015 0.000246
59 -0.000062 0.000238 0.000000 -0.011814 -0.004373 -0.000015 0.000246
60 -0.000062 0.000238 0.000000 -0.011814 -0.004373 -0.000015 0.000246
[Rear_Toe1_02]
58 379.707825 0.194073 0.000477 -0.000242 -31.676744 0.006934 379.707855
59 379.707825 0.194073 0.000477 -0.000242 -31.676744 0.006934 379.707855
60 379.707825 0.194073 0.000477 -0.000242 -31.676744 0.006934 379.707855
[Rear_Toe1_03]
58 500.129700 0.165701 0.000119 -0.000103 51.902481 0.007295 500.129761
59 500.129700 0.165701 0.000119 -0.000103 51.902466 0.007295 500.129761
60 500.129700 0.165701 0.000119 -0.000103 51.902466 0.007295 500.129761
[Rear_Toe2_02]
58 340.494507 0.000238 -0.000954 0.001192 -69.854523 0.001192 340.494507
59 340.494507 0.000238 -0.000954 0.001192 -69.854523 0.001192 340.494507
60 340.494507 0.000238 -0.000954 0.001192 -69.854523 0.001192 340.494507
[Rear_Toe2_03]
58 433.103577 0.000000 0.000238 0.006696 69.810326 0.006696 433.103546
59 433.103577 0.000000 0.000238 0.006696 69.810326 0.006696 433.103546
60 433.103577 0.000000 0.000238 0.006696 69.810326 0.006696 433.103546
[Rear_Toe3_02]
58 340.494141 -0.000358 -0.000477 0.008288 -67.274704 -0.009460 340.494171
59 340.494141 -0.000358 -0.000477 0.008288 -67.274704 -0.009460 340.494171
60 340.494141 -0.000358 -0.000477 0.008288 -67.274704 -0.009460 340.494171
[Rear_Toe3_03]
58 433.103577 0.001431 -0.000238 -0.000972 65.959007 -0.004547 433.103546
59 433.103577 0.001431 -0.000238 -0.000972 65.958984 -0.004547 433.103546
60 433.103577 0.001431 -0.000238 -0.000972 65.958984 -0.004547 433.103546
[Back_Bone]
58 1312.175781 -701.934692 0.000954 0.000023 -0.000007 -85.606667 1488.125488
59 1312.175781 -701.934692 0.000954 0.000023 -0.000007 -85.606667 1488.125488
60 1312.175781 -701.934692 0.000954 0.000023 -0.000007 -85.606667 1488.125488
[Head]
58 1406.159424 809.709290 0.001431 0.003808 -1.467787 7.770665 1622.625488
59 1406.159424 809.709290 0.001431 0.003563 -1.468390 7.770461 1622.625488
60 1406.159424 809.709290 0.001431 0.003318 -1.468993 7.770257 1622.625488
[Motor_Bone]
58 1158.364380 -417.834747 0.000477 -0.000105 0.000046 -105.985291 1231.419434
59 1158.364380 -417.834747 0.000477 -0.000105 0.000046 -105.985291 1231.419434
60 1158.364380 -417.834747 0.000477 -0.000105 0.000046 -105.985291 1231.419434
[Ping_Mechanism]
58 1215.237793 -433.297150 0.000954 0.000103 -0.000053 82.120995 1290.174072
59 1215.237793 -433.297150 0.000954 0.000103 -0.000053 82.120995 1290.174072
60 1215.237793 -433.297150 0.000954 0.000103 -0.000053 82.120995 1290.174072
[BN_LookIK]
58 193.241119 1380.371704 -0.002861 0.000000 89.965736 -31.038179 1393.832153
59 193.241119 1380.371704 -0.002861 0.000000 89.965736 -31.038179 1393.832153
60 193.241119 1380.371704 -0.002861 0.000000 89.965736 -31.038179 1393.832153
[bottomMouth]
58 -435.092926 615.759399 -0.000954 -0.000022 0.000016 73.527184 753.966492
59 -435.092926 615.759399 -0.000954 -0.000022 0.000016 73.527184 753.966492
60 -435.092926 615.759399 -0.000954 -0.000022 0.000016 73.527184 753.966492
[L_Mouth01]
58 554.440979 7.658243 838.222046 150.204178 23.759130 109.605339 1005.027161
59 554.440979 7.658243 838.222046 150.204178 23.759130 109.605339 1005.027161
60 554.440979 7.658243 838.222046 150.204178 23.759130 109.605339 1005.027161
[L_mouthFront]
58 551.629089 934.514771 339.150421 0.000081 2.804060 79.119301 1136.941284
59 551.629089 934.514771 339.150421 0.000081 2.804060 79.119301 1136.941284
60 551.629089 934.514771 339.150421 0.000081 2.804060 79.119301 1136.941284
[mouthGun]
58 55.332661 1627.420898 0.000000 0.000023 0.000009 -11.038128 1628.361328
59 55.332661 1627.420898 0.000000 0.000023 0.000009 -11.038128 1628.361328
60 55.332661 1627.420898 0.000000 0.000023 0.000009 -11.038128 1628.361328
[R_Mouth01]
58 554.442383 7.659197 -838.223938 29.795891 -23.759109 109.605331 1005.029541
59 554.442383 7.659197 -838.223938 29.795891 -23.759109 109.605331 1005.029541
60 554.442383 7.659197 -838.223938 29.795891 -23.759109 109.605331 1005.029541
[R_mouthFront]
58 551.629089 934.514282 -339.151367 0.000029 -2.803930 79.119133 1136.941162
59 551.629089 934.514282 -339.151367 0.000029 -2.803930 79.119133 1136.941162
60 551.629089 934.514282 -339.151367 0.000029 -2.803930 79.119133 1136.941162
[TopMouth]
58 461.269867 -56.106091 -0.008583 -0.000059 -0.000268 92.025169 464.669525
59 461.269867 -56.106091 -0.008583 -0.000059 -0.000268 92.025169 464.669525
60 461.269867 -56.106091 -0.008583 -0.000059 -0.000268 92.025169 464.669525
[weapon_bone]
58 -987.239868 1448.372803 0.001431 0.000000 89.965736 -31.038221 1752.833740
59 -987.239868 1448.372803 0.001431 0.000000 89.965736 -31.038221 1752.833740
60 -987.239868 1448.372803 0.001431 0.000000 89.965736 -31.038221 1752.833740
